<svg xmlns="http://www.w3.org/2000/svg" viewBox="0 0 256.22 127.77"><defs><style>.cls-1{fill:#fff;}.cls-2{fill:#e7e7e8;}.cls-3{fill:#f9f6f4;}</style></defs><title>Asset 5</title><g id="Layer_2" data-name="Layer 2"><g id="Layer_1-2" data-name="Layer 1"><polygon class="cls-1" points="13.53 114.85 59.29 127.77 59.29 0 13.53 12.93 13.53 114.85"/><polygon class="cls-2" points="56.16 3.18 56.16 124.32 55.27 124.43 52.88 124.71 51.99 124.82 49.6 125.1 48.71 125.21 46.32 125.5 45.44 125.6 45.44 2.15 46.32 2.23 48.71 2.46 49.6 2.55 51.99 2.78 52.02 2.78 52.88 2.86 55.27 3.09 56.16 3.18"/><polygon class="cls-1" points="46.32 2.23 46.32 125.5 45.44 125.6 45.44 2.15 46.32 2.23"/><polygon class="cls-1" points="49.6 2.55 49.6 125.1 48.71 125.21 48.71 2.46 49.6 2.55"/><polygon class="cls-1" points="52.88 2.86 52.88 124.71 51.99 124.82 51.99 2.78 52.02 2.78 52.88 2.86"/><polygon class="cls-1" points="56.16 3.18 56.16 124.32 55.27 124.43 55.27 3.09 56.16 3.18"/><polygon class="cls-1" points="0 114.73 45.59 127.77 45.59 0 0 13.04 0 114.73"/><path class="cls-3" d="M74.45,36.39H89.64a5.56,5.56,0,0,0,5.58-5.58V27.24H63.6V60h38.75V50H74.45Z"/><path class="cls-3" d="M117.15,8.1a5.2,5.2,0,0,0-3.72-1.47h-5.58V60H118.7V11.74A4.84,4.84,0,0,0,117.15,8.1Z"/><path class="cls-3" d="M134,20.27a5.11,5.11,0,0,0-3.73-1.55h-5.58V60h10.85V24A5.06,5.06,0,0,0,134,20.27Zm0-12.09a5.11,5.11,0,0,0-3.73-1.55h-5.58v8.52h10.85V11.9A5.07,5.07,0,0,0,134,8.18Z"/><path class="cls-3" d="M152.17,26.31a5.2,5.2,0,0,0,3.72-1.47,5,5,0,0,0,1.56-3.8V18.87h-6.36v-7a5.08,5.08,0,0,0-1.55-3.72A4.91,4.91,0,0,0,146,6.63h-5.58V52.2q0,7.13,6,7.59a81.7,81.7,0,0,0,11.09.16V51.89h-3.26q-3.1,0-3.1-2.64V26.31Z"/><path class="cls-3" d="M193.63,23.37q-5.12-5.58-14.41-5.58-8.83,0-13.8,5.73-4.8,5.58-4.8,15.5,0,10.39,5,16,4.95,5.73,13.79,5.73a19.75,19.75,0,0,0,12.1-3.56,16.87,16.87,0,0,0,6.5-9.92h-7.75a4.64,4.64,0,0,0-2.86.77,3.43,3.43,0,0,0-1.17,1.24l-.85.86a2.12,2.12,0,0,1-.85.54,8.82,8.82,0,0,1-4.5,1.08c-2.68,0-4.7-.82-6-2.48s-2.22-3.92-2.33-7.13h26.82a2.68,2.68,0,0,0,.15-1.08V39.33Q198.59,29.1,193.63,23.37Zm-22,11.78A8.92,8.92,0,0,1,174,29a7.55,7.55,0,0,1,5.58-2.17A7.41,7.41,0,0,1,185.26,29q1.88,2,2.17,6.2Z"/><path class="cls-3" d="M69.18,6.63a5.55,5.55,0,0,0-5.58,5.58v3.56h38.75V6.63Z"/><path class="cls-3" d="M63.6,122.52V74.78a5.38,5.38,0,0,1,1.63-4,6,6,0,0,1,4-1.78h10.7l10.54,40.77L101,69h16.28v53.48H107V79.43L96.15,122.52H84.84l-11-43.09v43.09Z"/><path class="cls-3" d="M122.38,69.2H128a5.29,5.29,0,0,1,5.27,5.27v3.25H122.38Zm0,12.09H128a5.29,5.29,0,0,1,5.27,5.27v36H122.38Z"/><path class="cls-3" d="M174.42,122.52H169a5,5,0,0,1-5.27-5.27V96.17q0-3.72-2.25-5.43a8.14,8.14,0,0,0-5-1.71,7.81,7.81,0,0,0-5,1.71q-2.17,1.71-2.17,5.43v26.35H138.46V98.34q0-10.54,5.5-14.11a24,24,0,0,1,12.17-3.87,23.33,23.33,0,0,1,12.55,3.56q5.73,3.57,5.74,14.42Z"/><path class="cls-3" d="M206.58,69h5.27a5,5,0,0,1,3.72,1.63,5.17,5.17,0,0,1,1.55,3.64v30.23q0,11-6.36,14.88A26,26,0,0,1,197,123.3a24.42,24.42,0,0,1-7.91-1.32,13,13,0,0,1-6.2-4.26q-4.5-5.73-4.5-15.66,0-9.77,4.5-15.66a15.11,15.11,0,0,1,18.75-4.5,14.75,14.75,0,0,1,5,4.81ZM188.91,101.6q0,6.2,2.33,9.46a7.69,7.69,0,0,0,6.66,3.25,7.54,7.54,0,0,0,6.51-3.25q2.17-3.26,2.17-9.46,0-5.58-2.33-8.83a8.1,8.1,0,0,0-6.67-3.1,7.4,7.4,0,0,0-6.36,3.25Q188.91,96,188.91,101.6Z"/><path class="cls-3" d="M219.64,108.88h10.54a5.7,5.7,0,0,0,2.33,4.65,11,11,0,0,0,6.2,1.55,10,10,0,0,0,4.8-1.08,3.29,3.29,0,0,0,1.86-2.94q0-2.79-6.51-4.19a29.62,29.62,0,0,1-4.19-.93q-8.22-2-11-4.81a9.52,9.52,0,0,1-3.1-7.44,12.34,12.34,0,0,1,4.5-9.77q4.65-3.56,12.09-3.56,8.06,0,12.87,3.56A13.64,13.64,0,0,1,254.83,94h-6.66a4.92,4.92,0,0,1-4.5-2.63l-1.24-1.24a8.35,8.35,0,0,0-5.12-1.4,9.21,9.21,0,0,0-4.65.93,3.13,3.13,0,0,0-1.4,2.79q0,2.48,8.06,4.19a15.79,15.79,0,0,0,1.63.46,6,6,0,0,0,1.32.16q7.91,2,11,4.65a9.77,9.77,0,0,1,2.95,7.44q0,6.82-5,10.54-4.65,3.41-14,3.41-8.83,0-13.17-3.56-4.5-3.56-4.5-10.39Z"/></g></g></svg>