<svg xmlns="http://www.w3.org/2000/svg" viewBox="0 0 59.29 127.77"><defs><style>.cls-1{fill:#fff;}.cls-2{fill:#e7e7e8;}</style></defs><title>Asset 4</title><g id="Layer_2" data-name="Layer 2"><g id="Layer_1-2" data-name="Layer 1"><polygon class="cls-1" points="13.53 114.85 59.29 127.77 59.29 0 13.53 12.93 13.53 114.85"/><polygon class="cls-2" points="56.16 3.18 56.16 124.32 55.27 124.43 52.88 124.71 51.99 124.82 49.6 125.1 48.71 125.21 46.32 125.5 45.44 125.6 45.44 2.15 46.32 2.23 48.71 2.46 49.6 2.55 51.99 2.78 52.02 2.78 52.88 2.86 55.27 3.09 56.16 3.18"/><polygon class="cls-1" points="46.32 2.23 46.32 125.5 45.44 125.6 45.44 2.15 46.32 2.23"/><polygon class="cls-1" points="49.6 2.55 49.6 125.1 48.71 125.21 48.71 2.46 49.6 2.55"/><polygon class="cls-1" points="52.88 2.86 52.88 124.71 51.99 124.82 51.99 2.78 52.02 2.78 52.88 2.86"/><polygon class="cls-1" points="56.16 3.18 56.16 124.32 55.27 124.43 55.27 3.09 56.16 3.18"/><polygon class="cls-1" points="0 114.73 45.59 127.77 45.59 0 0 13.04 0 114.73"/></g></g></svg>